<?xml version="1.0" encoding="UTF-8"?><svg id="Layer_1" xmlns="http://www.w3.org/2000/svg" width="10.3in" height="2.37in" viewBox="0 0 741.48 170.96"><defs><style>.cls-1{fill:#fff;}</style></defs><path class="cls-1" d="M105.41,65.96l-2.57-.98-3.1-1.19c-.21-.08-.37-.25-.45-.45l-2.05-5.8c-.44-1.24-2.18-1.28-2.67-.06l-.97,2.4-.53,1.38-.57,1.48-.13.33c-.15.38-.44.68-.82.82l-4.56,1.75-.66.23c-1.23.44-1.28,2.15-.09,2.66l3.04,1.3,2.54.97c.21.08.37.25.45.45l2.31,5.58c.5,1.2,2.21,1.17,2.66-.05l2.04-5.53c.08-.21.25-.37.45-.45l2.53-.97,1.7-.65,1.44-.55c1.22-.47,1.22-2.2,0-2.67Z"/><path class="cls-1" d="M130.54,95.53h-18.13c-1.43,0-2.72.89-3.21,2.24l-1.59,4.29c-.83,2.24.83,4.61,3.21,4.61h9.02l-5.77,17.35c-.64,1.98-2.48,3.31-4.56,3.31h-49.16c-2.08,0-3.92-1.34-4.56-3.31l-1.5-4.62c-.46-1.41-1.77-2.37-3.26-2.37h-4.51c-2.33,0-3.98,2.27-3.26,4.48l1.93,5.94c2.13,6.57,8.25,11.01,15.16,11.01h49.16c6.93,0,13.02-4.43,15.15-10.98l9.13-27.47c.74-2.22-.91-4.5-3.25-4.5Z"/><path class="cls-1" d="M134.07,62.9l-39.77-28.89c-5.6-4.07-13.13-4.07-18.74,0l-39.77,28.89c-5.6,4.07-7.93,11.23-5.79,17.82l7.54,23.36c.46,1.41,1.77,2.37,3.26,2.37h6.48c.77,0,1.53-.07,2.27-.19l.44-.08c4.67-.91,8.65-4.12,10.47-8.65l3.89-9.72c.69-1.73,2.21-1.92,2.83-1.92s2.14.19,2.83,1.92l3.73,9.31c2.12,5.31,7.09,9.1,12.8,9.31,8.07.3,14.73-6.18,14.73-14.18v-6.45c0-1.89-1.53-3.42-3.42-3.42h-4.29c-1.89,0-3.42,1.53-3.42,3.42v6.45c0,1.8-1.57,3.24-3.41,3.03-1.15-.13-2.11-.97-2.54-2.05l-3.83-9.57c-2.31-5.76-8.01-9.35-14.29-8.88-5.49.42-10.17,4.15-12.21,9.26l-3.74,9.34c-.46,1.16-1.59,1.92-2.83,1.92h-.82l-5.86-18.04c-.64-1.98.06-4.14,1.74-5.36l39.77-28.89c1.68-1.22,3.96-1.22,5.64,0l39.77,28.89c1.68,1.22,2.39,3.39,1.74,5.36l-.7,2.06c-.48,1.41.57,2.87,2.05,2.87h7.2c.93,0,1.76-.6,2.05-1.49,2.13-6.57-.2-13.76-5.79-17.82Z"/><path class="cls-1" d="M68.54,170.96c-1.48,0-2.95-.37-4.26-1.12l-37.49-21.38c-2.49-1.42-4.1-3.97-4.31-6.82l-1.27-16.77c-.1-1.28-.8-2.47-1.88-3.17l-15.39-9.97c-2.46-1.59-3.92-4.29-3.92-7.22v-40.74c0-3.15,1.72-6.04,4.48-7.55l15.87-8.66c1.37-.75,2.2-2.19,2.16-3.75l-.38-14.57c-.09-3.23,1.62-6.21,4.46-7.77L63.73,1.07c2.63-1.44,5.76-1.43,8.37.05l14.17,8.01c.7.4,1.13,1.14,1.13,1.94v23.16c0,1.23-1,2.23-2.23,2.23s-2.23-1-2.23-2.23V12.37l-13.04-7.37c-1.26-.71-2.77-.72-4.03-.02L28.73,25.38c-1.37.75-2.19,2.19-2.15,3.74l.38,14.57c.09,3.24-1.63,6.22-4.48,7.78l-15.87,8.66c-1.33.73-2.16,2.12-2.16,3.64v40.74c0,1.41.71,2.71,1.89,3.48l15.39,9.97c2.24,1.45,3.7,3.91,3.9,6.57l1.27,16.77c.1,1.38.88,2.6,2.08,3.29l37.49,21.38c1.25.71,2.8.72,4.06.03l12.41-6.86v-22.63c0-1.23,1-2.23,2.23-2.23s2.23,1,2.23,2.23v23.95c0,.81-.44,1.56-1.15,1.95l-13.56,7.49c-1.29.71-2.72,1.06-4.16,1.06Z"/><path class="cls-1" d="M101.78,170.96c-1.44,0-2.87-.35-4.16-1.06l-13.56-7.49c-.71-.39-1.15-1.14-1.15-1.95v-24.57c0-1.23,1-2.23,2.23-2.23s2.23,1,2.23,2.23v23.25l12.41,6.86c1.26.69,2.81.68,4.06-.03l37.49-21.38c1.2-.68,1.98-1.91,2.08-3.29l1.27-16.77c.2-2.66,1.66-5.12,3.9-6.57l15.39-9.97c1.18-.77,1.89-2.07,1.89-3.48v-40.74c0-1.52-.83-2.91-2.16-3.64l-15.87-8.66c-2.85-1.55-4.57-4.53-4.48-7.78l.38-14.57c.04-1.56-.78-2.99-2.15-3.74L104.43,4.98c-1.27-.7-2.78-.69-4.03.02l-13.04,7.37v22.16c0,1.23-1,2.23-2.23,2.23s-2.23-1-2.23-2.23V11.07c0-.8.43-1.54,1.13-1.94l14.17-8.01c2.61-1.48,5.74-1.49,8.37-.05l37.15,20.4c2.83,1.56,4.54,4.53,4.46,7.77l-.38,14.57c-.04,1.56.79,3,2.16,3.75l15.87,8.66c2.77,1.51,4.48,4.4,4.48,7.55v40.74c0,2.93-1.47,5.63-3.93,7.22l-15.39,9.97c-1.08.7-1.78,1.88-1.88,3.16l-1.27,16.77c-.22,2.85-1.83,5.4-4.32,6.82l-37.49,21.38c-1.31.75-2.79,1.12-4.26,1.12Z"/><path class="cls-1" d="M363.15,109.37h-5.15c-1.7,0-3.07-1.13-3.07-2.53v-40.13c0-6.95,4.79-11.62,14.83-11.62,9,0,13.02,3.79,15.7,9.88l18.85,34.06c.77,1.26,2.01,2.21,4.12,2.21,2.39,0,3.83-1.19,3.83-3v-39.66c0-1.4,1.37-2.53,3.07-2.53h5.25c1.7,0,3.07,1.13,3.07,2.53v40.06c0,7.03-4.88,11.69-14.83,11.69-9,0-13.11-3.79-15.79-9.88l-18.85-34.06c-.86-1.58-2.01-2.29-4.02-2.29-2.58,0-3.92,1.18-3.92,3.08v39.66c0,1.4-1.37,2.53-3.07,2.53M568.24,109.37h-5.06c-1.7,0-3.07-1.13-3.07-2.53v-39.82c0-7.11,5.07-11.93,15.5-11.93,9.19,0,14.45,3.79,16.27,10.51l9.09,32.63c.57,1.9,1.91,3,4.31,3s3.73-1.11,4.31-3l9.09-32.63c1.82-6.72,6.6-10.51,15.89-10.51,10.43,0,15.5,4.82,15.5,11.93v39.82c0,1.4-1.37,2.53-3.07,2.53h-5.06c-1.7,0-3.07-1.13-3.07-2.53v-39.34c0-2.05-1.63-3.4-4.59-3.4-2.68,0-4.02,1.11-4.5,2.84l-9.28,32.63c-2.01,7.03-6.41,10.75-15.31,10.75s-13.69-3.87-15.6-10.75l-9.19-32.63c-.48-1.74-1.91-2.84-4.5-2.84-2.97,0-4.59,1.34-4.59,3.4v39.34c0,1.4-1.37,2.53-3.07,2.53M676.97,58.57v48.27c0,1.4-1.37,2.53-3.07,2.53h-5.15c-1.7,0-3.07-1.13-3.07-2.53v-48.27c0-1.4,1.37-2.53,3.07-2.53h5.15c1.7,0,3.07,1.13,3.07,2.53M700.13,56.04c1.7,0,3.07,1.13,3.07,2.53v32.31c0,5.14,3.06,9.17,13.21,9.17h22c1.7,0,3.07,1.13,3.07,2.53v4.26c0,1.4-1.37,2.53-3.07,2.53h-22.68c-17.13,0-23.83-7.74-23.83-18.41v-32.39c0-1.4,1.37-2.53,3.07-2.53h5.15ZM521.65,72.19v21.66c0,7.69-6.7,14.42-15.92,15.52-8.63,1.03-16.93-3.13-19.97-9.69l-13.78-30.56c-2.51-5.56-10.38-5.62-12.98-.11l-18.25,38.76c-.46.97-1.6,1.6-2.85,1.6h-5.97c-2.17,0-3.65-1.81-2.85-3.47l20.1-41.77c2.68-5.56,9.07-9.15,16.31-9.15.04,0,.08,0,.12,0,7.29.04,13.68,3.7,16.29,9.32l14.79,31.93c1.28,2.77,5.08,4.38,8.72,3.31,2.79-.82,4.56-3.08,4.56-5.52v-21.84c0-1.4,1.37-2.53,3.07-2.53h5.55c1.7,0,3.07,1.13,3.07,2.53M347.52,101.96c0-1.4-1.37-2.53-3.07-2.53h-44.7c-4.55,0-8.25-3.73-8.25-8.32v-4.02h38.61c1.7,0,3.07-1.13,3.07-2.53v-4.58c0-1.4-1.37-2.53-3.07-2.53h-38.61v-1.83c0-4.59,3.7-8.32,8.25-8.32h44.7c1.7,0,3.07-1.13,3.07-2.53v-4.58c0-1.4-1.37-2.53-3.07-2.53h-44.7c-10.99,0-19.93,8.06-19.93,17.97v15.5c0,9.91,8.94,17.97,19.93,17.97h44.7c1.7,0,3.07-1.13,3.07-2.53v-4.58ZM272.41,91.27v-14.94h-40.16c-1.7,0-3.07,1.13-3.07,2.53v4.58c0,1.4,1.37,2.53,3.07,2.53h28.47v5.29c0,5.06-4.61,9.18-10.27,9.18h-28.21c-3.54,0-6.42-2.62-6.42-5.84v-21.5c0-3.22,2.88-5.84,6.42-5.84h46.53c1.7,0,3.07-1.13,3.07-2.53v-4.58c0-1.4-1.37-2.53-3.07-2.53h-46.53c-9.98,0-18.1,6.95-18.1,15.49v21.5c0,8.54,8.12,15.49,18.1,15.49h28.21c12.1,0,21.95-8.45,21.95-18.83M546.53,104.58h0c0-3.17-2.57-5.75-5.75-5.75s-5.75,2.57-5.75,5.75,2.57,5.75,5.75,5.75,5.75-2.57,5.75-5.75M524.93,54.91l-2.42-.93-2.93-1.12c-.2-.08-.35-.23-.43-.43l-1.93-5.47c-.41-1.17-2.06-1.21-2.52-.06l-.92,2.26-.5,1.3-.53,1.39-.12.31c-.14.36-.42.64-.78.78l-4.3,1.65-.62.22c-1.16.41-1.21,2.03-.08,2.51l2.87,1.23,2.39.92c.2.08.35.23.43.43l2.18,5.27c.47,1.13,2.09,1.1,2.51-.05l1.93-5.22c.08-.2.23-.35.43-.43l2.39-.91,1.61-.62,1.36-.52c1.15-.44,1.15-2.08,0-2.52Z"/></svg>