<svg xmlns="http://www.w3.org/2000/svg" id="Layer_1" data-name="Layer 1" viewBox="0 0 194 47"><defs><style>
      .cls-1, .cls-2 {
        fill: #fdfef9;
        stroke-width: 0px;
      }

      .cls-2 {
        fill-rule: evenodd;
      }

      .cls-3 {
        fill: none;
        stroke: #0076a9;
        stroke-linecap: round;
        stroke-miterlimit: 10;
        stroke-width: .75px;
      }
    </style></defs><g><g><polygon class="cls-2" points="12.84 26.83 12.65 26.83 7.24 9.2 .31 9.2 .31 45.82 8.02 45.82 8.02 27.99 8.21 27.99 13.67 45.82 20.74 45.82 20.74 9.2 12.84 9.2 12.84 26.83"></polygon><path class="cls-2" d="M27.25,9.2l-5.15,36.62h8.21l.71-6.84h4.89l.71,6.84h8.26l-5.45-36.62h-12.19ZM31.63,32.23l1.6-15.03h.15l1.91,15.03h-3.67Z"></path><polygon class="cls-2" points="77.59 9.2 74.58 22.59 74.48 22.59 71.47 9.2 57.12 9.2 54.19 37.91 54.04 37.91 50.8 9.2 42.54 9.2 48 45.82 60.18 45.82 64.66 13.97 70.18 30.47 70.18 45.82 78.76 45.82 78.76 30.47 86 9.2 77.59 9.2"></polygon></g><g><path class="cls-1" d="M4.03,6.59c-.07,0-.15-.06-.16-.13l-.22-.74h-1.83l-.22.74c-.02.06-.09.13-.16.13H.4c-.12,0-.15-.06-.14-.13L2.06.37c.03-.08.06-.13.13-.13h1.08c.06,0,.1.05.13.14l1.8,6.09c.02.06-.04.13-.14.13h-1.04ZM2.74,2.63l-.56,1.87h1.1l-.55-1.87Z"></path><path class="cls-1" d="M16.63,6.59c-.07,0-.14-.05-.14-.13l-.04-2.31-.7,2.31c-.02.06-.09.13-.16.13h-.73c-.07,0-.15-.05-.17-.13l-.69-2.31-.05,2.31c0,.07-.05.13-.13.13h-1.08c-.06,0-.13-.05-.13-.13l.25-6.1c0-.06.04-.13.1-.13h1.16c.07,0,.12.05.14.12l.82,3.52.1.76.07-.76.96-3.52c.02-.08.06-.12.14-.12h1.16c.07,0,.1.06.1.13l.24,6.1c0,.07-.05.13-.13.13h-1.07Z"></path><path class="cls-1" d="M25.41,6.59c-.07,0-.13-.05-.13-.13V.37c0-.07.05-.13.13-.13h3.31c.06,0,.13.05.13.13v1.08c0,.07-.06.13-.13.13h-2.1v1.17h1.61c.07,0,.13.05.13.13v1.08c0,.07-.05.13-.13.13h-1.61v1.17h2.1c.06,0,.13.05.13.13v1.08c0,.07-.06.13-.13.13h-3.31Z"></path><path class="cls-1" d="M38.99,6.59c-.07,0-.14-.06-.16-.13l-.89-2.22h-.42v2.22c0,.06-.05.13-.13.13h-1.08c-.06,0-.13-.06-.13-.13V.37c0-.07.06-.13.13-.13h2.9c.08,0,.17.03.24.09l.52.52c.11.11.09.18.09.25v2.29c0,.12-.02.16-.09.24l-.55.54.93,2.29c.03.06,0,.13-.09.13h-1.26ZM38.68,2.74s.03-.05.03-.07v-.83s0-.06-.03-.09l-.14-.14s-.07-.04-.12-.04h-.91v1.34h.96s.04,0,.06-.03l.15-.15Z"></path><path class="cls-1" d="M47.94,6.59c-.07,0-.13-.05-.13-.13V.37c0-.07.05-.13.13-.13h1.08c.07,0,.13.05.13.13v6.1c0,.07-.05.13-.13.13h-1.08Z"></path><path class="cls-1" d="M60.02,6.49c-.08.08-.17.1-.25.1h-2.35c-.06,0-.15-.02-.24-.1l-.51-.51c-.09-.09-.09-.17-.09-.24V1.08s0-.15.09-.24l.51-.51c.1-.1.16-.1.24-.1h2.36c.08,0,.15.02.24.1l.51.51c.08.08.1.15.1.24v.97c0,.06-.06.13-.13.13h-1.08c-.07,0-.13-.06-.13-.13v-.24s0-.05-.03-.06l-.15-.15s-.05-.03-.06-.03h-.88s-.05,0-.06.03l-.15.15s-.04.05-.04.08v3.21s.01.05.04.07l.13.13h1.06l.13-.13s.03-.05.03-.06v-.27c0-.06.05-.13.13-.13h1.08c.06,0,.13.06.13.13v1.03s0,.07-.1.16l-.51.51Z"></path><path class="cls-1" d="M71.64,6.59c-.07,0-.15-.06-.16-.13l-.22-.74h-1.83l-.22.74c-.02.06-.09.13-.16.13h-1.04c-.12,0-.15-.06-.14-.13l1.8-6.1c.03-.08.06-.13.13-.13h1.08c.06,0,.1.05.13.14l1.8,6.09c.02.06-.04.13-.14.13h-1.04ZM70.35,2.63l-.56,1.87h1.1l-.55-1.87Z"></path><path class="cls-1" d="M85.57,6.49c-.06.06-.17.1-.24.1h-2.36c-.1,0-.16-.03-.24-.1l-.51-.51c-.06-.06-.1-.17-.1-.25v-.88c0-.07.06-.13.14-.13h1.07c.07,0,.13.05.13.13v.41h1.15s.03,0,.05-.03l.15-.15s.03-.04.03-.06v-.69s0-.06-.05-.09l-.14-.13s-.03-.03-.05-.03h-1.64c-.1,0-.16-.03-.24-.1l-.51-.51c-.05-.05-.1-.13-.1-.24V1.08c0-.09.04-.17.1-.24l.51-.51c.1-.1.16-.1.24-.1h2.36c.09,0,.15.02.24.1l.51.51c.06.06.1.15.1.25v.94c0,.07-.06.13-.14.13h-1.07c-.07,0-.13-.05-.13-.13v-.46h-1.13s-.05,0-.06.03l-.15.15s-.04.05-.04.07v.73s.02.05.04.06l.13.13h1.7c.13,0,.15.02.24.1l.51.51c.1.11.1.15.1.24v2.16c0,.06-.02.15-.1.24l-.51.51Z"></path><rect class="cls-1" x="76.44" y=".23" width="1.45" height="2.12" rx=".13" ry=".13"></rect></g></g><path class="cls-1" d="M81.27,44.2c0-.22.04-.43.13-.62.08-.19.2-.36.35-.51s.32-.26.51-.35c.19-.08.4-.13.62-.13s.43.04.62.13c.19.09.36.2.51.35.15.15.26.32.35.51.08.19.13.4.13.62s-.04.43-.13.62c-.09.19-.2.36-.35.51s-.32.26-.51.35c-.19.08-.4.13-.62.13s-.43-.04-.62-.13c-.19-.08-.36-.2-.51-.35-.15-.15-.26-.32-.35-.51-.09-.19-.13-.4-.13-.62ZM81.5,44.2c0,.19.04.37.11.54.07.17.17.31.29.44.12.12.27.22.44.29.17.07.35.11.54.11s.37-.04.54-.11c.17-.07.31-.17.44-.29s.22-.27.29-.44c.07-.17.11-.35.11-.54s-.04-.37-.11-.54c-.07-.17-.17-.31-.29-.44-.12-.12-.27-.22-.44-.29-.17-.07-.35-.11-.54-.11s-.37.04-.54.11c-.17.07-.31.17-.44.29s-.22.27-.29.44c-.07.17-.11.35-.11.54ZM82.53,45.12h-.23v-1.85h.71c.21,0,.36.04.45.13.09.09.13.22.13.38,0,.09-.01.16-.04.22-.02.06-.06.11-.1.15-.04.04-.09.07-.15.1-.06.02-.12.04-.18.05l.55.81h-.26l-.55-.81h-.33v.81ZM82.53,44.1h.3c.06,0,.13,0,.19,0,.06,0,.12-.02.17-.04.05-.02.09-.05.12-.1.03-.04.05-.1.05-.18,0-.06-.01-.11-.04-.15-.02-.04-.06-.07-.1-.09-.04-.02-.08-.04-.13-.05-.05-.01-.1-.02-.15-.02h-.42v.63Z"></path><g><g><path class="cls-1" d="M101.57,28.19c-.22,0-.38-.16-.38-.38V9.67c0-.22.16-.38.38-.38h9.86c.19,0,.38.16.38.38v3.22c0,.14-.08.38-.3.38h-6.34v3.49h4.79c.22,0,.38.16.38.38v3.22c0,.16-.14.38-.32.38h-4.85v7.07c0,.22-.16.38-.38.38h-3.22Z"></path><path class="cls-1" d="M126.08,27.89c-.22.22-.41.3-.62.3h-7.07c-.27,0-.46-.05-.7-.3l-1.52-1.52c-.22-.22-.3-.43-.3-.7v-13.86c0-.22.11-.51.3-.7l1.52-1.52c.24-.24.49-.3.7-.3h6.99c.3,0,.38-.03.7.3l1.54,1.52c.14.14.27.35.27.7v13.86c0,.16-.05.49-.27.7l-1.54,1.52ZM123.84,23.83c.08-.08.08-.14.08-.19v-9.64c0-.05,0-.14-.08-.22l-.43-.43c-.08-.08-.14-.08-.19-.08h-2.63c-.09,0-.12.02-.19.08l-.46.43c-.08.08-.08.16-.08.22v9.64c0,.05.02.12.08.19l.38.38h3.14l.38-.38Z"></path><path class="cls-1" d="M141.35,28.19c-.22,0-.41-.19-.49-.38l-2.65-6.61h-1.25v6.61c0,.19-.16.38-.38.38h-3.22c-.19,0-.38-.19-.38-.38V9.67c0-.22.19-.38.38-.38h8.61c.24,0,.51.08.7.27l1.54,1.54c.3.3.27.54.27.76v6.82c0,.35-.05.49-.27.7l-1.62,1.6,2.76,6.82c.08.19,0,.38-.27.38h-3.74ZM140.43,16.74c.05-.05.08-.14.08-.22v-2.46c0-.14,0-.19-.08-.27l-.41-.41c-.11-.11-.22-.11-.35-.11h-2.71v3.98h2.84c.05,0,.11,0,.19-.08l.43-.43Z"></path><path class="cls-1" d="M159.61,27.89c-.32.32-.68.3-.7.3h-7.01c-.3,0-.54-.14-.7-.3l-1.52-1.52c-.32-.32-.3-.46-.3-.7v-13.86c0-.32.08-.49.3-.7l1.52-1.52c.16-.16.3-.3.7-.3h7.01c.22,0,.38,0,.7.3l1.52,1.52c.3.32.3.49.3.7v2.9c0,.19-.19.38-.41.38h-3.2c-.22,0-.38-.19-.38-.38v-.7c0-.08,0-.11-.08-.19l-.46-.46c-.08-.08-.14-.08-.19-.08h-2.63c-.05,0-.11,0-.19.08l-.43.46c-.09.09-.11.16-.11.24v9.56c0,.08.03.14.11.22l.35.38h3.17l.38-.38c.07-.07.08-.14.08-.19v-2.38h-1.79c-.22,0-.38-.19-.38-.38v-3.22c0-.22.16-.38.38-.38h5.36c.22,0,.41.16.41.38v8.18c0,.22-.14.38-.3.54l-1.52,1.52Z"></path><path class="cls-1" d="M166.87,28.19c-.22,0-.38-.16-.38-.38V9.67c0-.22.16-.38.38-.38h9.86c.19,0,.38.16.38.38v3.22c0,.22-.19.38-.38.38h-6.25v3.47h4.79c.22,0,.38.16.38.38v3.22c0,.22-.16.38-.38.38h-4.79v3.49h6.25c.19,0,.38.16.38.38v3.22c0,.22-.19.38-.38.38h-9.86Z"></path><path class="cls-1" d="M191.24,27.89c-.22.22-.43.3-.7.3h-8.61c-.22,0-.38-.16-.38-.38V9.67c0-.22.16-.38.38-.38h8.61c.22,0,.46.05.7.3l1.52,1.52c.24.24.3.51.3.7v13.86c0,.19,0,.41-.3.7l-1.52,1.52ZM188.99,23.83c.05-.08.08-.14.08-.19v-9.64c0-.05,0-.11-.08-.19l-.46-.46c-.05-.08-.14-.08-.19-.08h-2.82v10.94h3.09l.38-.38Z"></path></g><g><path class="cls-1" d="M107.31,45.58c-.12.12-.22.19-.44.19h-5.36c-.13,0-.24-.1-.24-.24v-11.29c0-.13.1-.24.24-.24h5.36c.15,0,.29.03.44.19l.94.94c.19.19.19.3.19.44v3.34c0,.17-.07.32-.19.44l-.66.67.66.66c.15.15.19.25.19.34v3.19c0,.19-.08.34-.19.44l-.94.94ZM105.91,38.4s.05-.07.05-.12v-1.35c0-.05,0-.07-.05-.12l-.29-.29s-.05-.05-.1-.05h-1.77v2.16h1.92l.24-.24ZM105.91,43.05s.05-.08.05-.12v-1.37s0-.07-.05-.12l-.29-.29s-.05-.05-.1-.05h-1.77v2.17h1.92l.24-.24Z"></path><path class="cls-1" d="M113.95,45.76c-.12,0-.24-.1-.24-.24v-5.17l-3.14-6.03c-.08-.15.02-.32.22-.32h2.17c.13,0,.25.12.3.24l1.69,3.34,1.69-3.34c.06-.11.17-.24.3-.24h2.17c.2,0,.3.17.22.32l-3.14,6.03v5.17c0,.13-.12.24-.24.24h-2.02Z"></path></g><g><path class="cls-1" d="M130.9,45.76c-.12,0-.24-.08-.24-.2v-9.09h-2.14c-.13,0-.25-.1-.25-.24v-1.99c0-.13.12-.25.25-.25h6.74c.13,0,.25.12.25.25v1.99c0,.13-.12.24-.25.24h-2.14v9.09c0,.12-.12.2-.24.2h-1.99Z"></path><path class="cls-1" d="M143.42,45.76c-.12,0-.24-.1-.24-.24v-4.42h-2.53v4.42c0,.13-.12.24-.24.24h-2.01c-.13,0-.24-.1-.24-.24v-11.29c0-.13.1-.24.24-.24h2.01c.12,0,.24.1.24.24v4.4h2.53v-4.4c0-.13.12-.24.24-.24h2.01c.13,0,.24.1.24.24v11.29c0,.13-.1.24-.24.24h-2.01Z"></path><path class="cls-1" d="M149.14,45.76c-.13,0-.24-.1-.24-.24v-11.29c0-.13.1-.24.24-.24h6.14c.12,0,.24.1.24.24v2.01c0,.13-.12.24-.24.24h-3.89v2.16h2.98c.13,0,.24.1.24.24v2.01c0,.13-.1.24-.24.24h-2.98v2.17h3.89c.12,0,.24.1.24.24v2.01c0,.13-.12.24-.24.24h-6.14Z"></path></g><g><path class="cls-1" d="M171.26,45.58c-.12.12-.32.18-.44.18h-4.35c-.18,0-.3-.05-.44-.18l-.94-.94c-.12-.12-.18-.32-.18-.47v-1.63c0-.13.12-.23.25-.23h1.98c.13,0,.23.1.23.23v.76h2.11s.05-.02.08-.05l.29-.27s.05-.07.05-.12v-1.28c0-.07-.02-.12-.08-.17l-.25-.23s-.05-.05-.08-.05h-3.02c-.18,0-.3-.05-.44-.18l-.94-.94c-.1-.1-.18-.23-.18-.44v-3.96c0-.17.07-.32.18-.44l.94-.94c.18-.18.3-.18.44-.18h4.35c.17,0,.29.03.44.18l.94.94c.12.12.18.29.18.45v1.73c0,.13-.12.23-.25.23h-1.98c-.13,0-.23-.1-.23-.23v-.84h-2.08c-.05,0-.08.02-.12.05l-.27.27c-.05.05-.07.08-.07.13v1.34c0,.05.03.08.07.12l.23.23h3.14c.23,0,.29.03.44.18l.94.94c.19.19.18.29.18.44v3.98c0,.12-.03.29-.18.44l-.94.94Z"></path><path class="cls-1" d="M175.72,45.76c-.13,0-.23-.1-.23-.23v-11.24c0-.13.1-.23.23-.23h6.11c.12,0,.23.1.23.23v2c0,.13-.12.23-.23.23h-3.88v2.15h2.97c.13,0,.23.1.23.23v2c0,.13-.1.23-.23.23h-2.97v2.16h3.88c.12,0,.23.1.23.23v2c0,.13-.12.23-.23.23h-6.11Z"></path><path class="cls-1" d="M191.01,45.76c-.13,0-.27-.12-.3-.23l-.4-1.36h-3.37l-.4,1.36c-.03.12-.17.23-.3.23h-1.91c-.22,0-.29-.12-.25-.23l3.32-11.24c.05-.15.12-.23.23-.23h2c.12,0,.18.08.23.25l3.32,11.22c.03.12-.07.23-.25.23h-1.91ZM188.63,38.46l-1.02,3.44h2.03l-1.01-3.44Z"></path></g></g><line class="cls-3" x1="92.55" y1=".49" x2="92.59" y2="45.73"></line></svg>